<svg version="1.1" id="Layer_1" xmlns="http://www.w3.org/2000/svg" xmlns:xlink="http://www.w3.org/1999/xlink" x="0px" y="0px"
	 width="100%" viewBox="0 0 1492 1492" enable-background="new 0 0 1492 1492" xml:space="preserve">
<path fill="#FFFFFF" opacity="1.000000" stroke="none" 
	d="
M1015.000000,1493.000000 
	C676.666748,1493.000000 338.833466,1493.000000 1.000136,1493.000000 
	C1.000091,995.666809 1.000091,498.333618 1.000045,1.000336 
	C498.333099,1.000224 995.666199,1.000224 1492.999512,1.000112 
	C1492.999634,498.333008 1492.999634,995.666016 1492.999756,1492.999512 
	C1333.833374,1493.000000 1174.666626,1493.000000 1015.000000,1493.000000 
M836.870056,1146.127808 
	C824.471252,1146.049927 812.072449,1145.955933 799.673584,1145.939453 
	C799.026123,1145.938599 798.377747,1146.597412 797.323425,1147.669434 
	C797.323425,1199.250732 797.323425,1250.832031 797.323425,1302.454834 
	C811.078064,1302.454834 824.168152,1302.454834 837.531799,1302.454834 
	C837.610718,1300.903564 837.733704,1299.610474 837.734009,1298.317383 
	C837.743713,1249.157959 837.745667,1199.998657 837.722717,1150.839233 
	C837.722107,1149.541626 837.433411,1148.244385 836.870056,1146.127808 
M259.067139,1092.782837 
	C231.916107,1092.767090 204.765060,1092.734863 177.614182,1092.788208 
	C176.358475,1092.790649 175.104294,1093.557739 173.501404,1094.708862 
	C173.501404,1163.942627 173.501404,1233.176392 173.501404,1302.341919 
	C187.833282,1302.341919 201.548691,1302.341919 215.645325,1302.341919 
	C215.645325,1288.367798 215.645325,1274.769653 215.645325,1260.611084 
	C217.805634,1260.611084 219.584900,1260.611694 221.364182,1260.611084 
	C233.524628,1260.607300 245.696091,1260.937134 257.843445,1260.536255 
	C293.959076,1259.344849 320.505341,1242.323120 334.582428,1209.280029 
	C348.950958,1175.552856 342.240784,1144.144409 317.020599,1117.574219 
	C301.769012,1101.505981 282.549927,1092.937012 259.067139,1092.782837 
M666.811340,1324.906006 
	C666.811340,1337.351074 666.811340,1349.796265 666.811340,1363.430908 
	C679.146362,1362.702393 691.159363,1363.371948 702.571960,1361.067749 
	C741.351074,1353.238403 766.936401,1320.911133 766.940735,1281.295776 
	C766.945435,1238.131958 766.941650,1194.968140 766.941528,1151.804321 
	C766.941528,1150.016113 766.941528,1148.227905 766.941528,1146.494629 
	C760.908569,1145.160767 756.315247,1145.659790 752.751221,1151.124146 
	C749.635559,1155.901123 745.481323,1160.000732 741.727661,1164.468872 
	C739.832825,1162.843994 738.443542,1161.658691 737.060852,1160.465942 
	C696.511902,1125.484009 652.104248,1139.832397 629.304504,1164.465942 
	C604.855835,1190.880981 599.447815,1230.841553 615.337402,1263.201416 
	C634.552246,1302.333374 687.619751,1318.106812 724.431580,1295.797241 
	C721.902893,1301.275635 719.239563,1306.762573 715.622131,1311.524780 
	C710.050415,1318.859741 701.509155,1321.036133 692.052368,1322.785767 
	C685.117249,1322.809204 678.180969,1322.771606 671.247986,1322.906616 
	C669.835815,1322.934204 668.436340,1323.611572 666.811340,1324.906006 
M703.459717,253.977219 
	C652.667480,260.906036 606.264893,279.166199 564.159729,308.298096 
	C560.110962,311.099365 557.637146,311.288025 553.467041,308.268036 
	C539.947754,298.477448 525.108276,297.585114 510.594055,305.492126 
	C495.654816,313.630646 488.876709,326.915619 489.767883,344.054230 
	C490.276459,353.835358 494.635040,361.889160 501.270386,369.831268 
	C500.191986,370.523193 499.297791,370.986603 498.529480,371.606140 
	C478.331512,387.892029 462.925507,408.003357 452.086578,431.452972 
	C443.377899,450.293915 441.281006,469.840881 449.084442,489.653961 
	C454.986023,504.638214 465.342163,516.356201 477.532837,526.432678 
	C500.905426,545.751831 528.280273,557.326111 556.696655,566.959717 
	C574.426575,572.970520 592.386963,575.247498 611.142029,575.149963 
	C704.297119,574.665649 797.455872,574.670593 890.612183,574.933838 
	C903.082214,574.969116 914.706177,572.764709 926.124939,568.342468 
	C933.269958,565.575439 940.449829,562.880920 947.491455,559.867493 
	C973.545898,548.717407 998.126099,535.144653 1018.397461,514.920349 
	C1035.711060,497.647034 1046.829346,477.552765 1044.879639,452.142181 
	C1043.540527,434.691162 1036.375854,419.352112 1026.526489,405.233826 
	C1017.089844,391.707397 1006.752014,378.916931 992.887878,369.118744 
	C993.628723,368.190002 994.113953,367.558380 994.623169,366.946808 
	C1008.432983,350.362244 1007.598877,327.671448 992.599304,311.960449 
	C978.797119,297.503693 955.796875,295.927399 939.315430,308.647644 
	C936.225159,311.032776 934.297119,311.125122 931.181213,308.922058 
	C908.610046,292.963348 884.245544,280.379639 858.326172,270.783875 
	C808.405518,252.302414 756.993835,247.440948 703.459717,253.977219 
M660.500000,779.138245 
	C728.327209,779.096436 796.154480,779.034729 863.981689,779.034851 
	C873.777771,779.034851 882.829590,776.841919 890.630920,770.707031 
	C902.273682,761.551208 906.775146,749.288452 906.671936,734.729614 
	C906.399109,696.237061 906.398315,657.742737 906.270447,619.249146 
	C906.266235,617.974426 906.057495,616.700378 905.943481,615.419434 
	C799.875488,615.419434 694.151855,615.419434 588.481689,615.419434 
	C588.234924,616.315186 587.993286,616.782471 587.993530,617.249573 
	C588.014954,658.245239 587.661926,699.246582 588.251831,740.234314 
	C588.569458,762.300964 606.506531,778.901428 628.503052,779.127441 
	C638.834351,779.233582 649.167603,779.141113 660.500000,779.138245 
M998.407532,1160.090454 
	C978.473022,1142.914307 955.725830,1136.154541 929.753296,1141.815552 
	C920.375000,1143.859497 912.278320,1148.522827 904.945068,1156.156982 
	C904.945068,1131.310181 904.945068,1107.551880 904.945068,1083.525024 
	C891.552612,1083.525024 878.480713,1083.525024 865.147644,1083.525024 
	C865.070374,1085.015991 864.945618,1086.303589 864.945312,1087.591187 
	C864.934082,1133.410522 864.801025,1179.230591 865.071106,1225.048340 
	C865.113770,1232.280640 866.153076,1239.742432 868.156555,1246.687012 
	C876.806519,1276.670410 896.258423,1296.492920 926.775452,1303.395264 
	C956.528137,1310.124634 983.213562,1302.880615 1004.109863,1279.859131 
	C1034.566162,1246.305176 1031.971802,1192.501709 998.407532,1160.090454 
M428.040436,1250.423950 
	C435.313934,1274.459229 450.404938,1291.543579 473.992340,1300.288696 
	C506.254517,1312.250000 534.451904,1303.847534 559.289673,1281.145752 
	C563.474487,1286.944214 567.271484,1292.208618 571.071899,1297.470581 
	C575.418762,1303.489014 576.861755,1303.973633 584.158325,1301.954712 
	C584.158325,1250.031372 584.158325,1198.143311 584.158325,1146.425415 
	C577.737244,1144.713623 573.346436,1146.546875 569.808350,1151.846924 
	C566.822815,1156.319214 562.936462,1160.190308 559.378784,1164.410522 
	C556.690979,1162.171753 554.405945,1160.244019 552.095520,1158.347290 
	C511.222565,1124.791626 463.822815,1141.459717 442.566132,1168.816772 
	C423.645050,1193.167725 420.309143,1220.428711 428.040436,1250.423950 
M1196.452148,1201.091675 
	C1183.881592,1149.178955 1127.949951,1124.158325 1080.810669,1149.360474 
	C1050.014771,1165.824951 1033.814941,1200.971924 1039.915527,1238.085693 
	C1045.193359,1270.194946 1069.421631,1296.237061 1100.915527,1303.652100 
	C1132.355957,1311.054565 1164.818970,1298.635620 1183.819214,1271.487061 
	C1198.622559,1250.335205 1201.815552,1226.825317 1196.452148,1201.091675 
M1268.098633,1092.545654 
	C1268.098633,1089.596558 1268.098633,1086.647339 1268.098633,1083.648926 
	C1254.541626,1083.648926 1241.499023,1083.648926 1227.926758,1083.648926 
	C1227.926758,1104.600220 1227.926758,1125.155029 1227.926758,1146.172607 
	C1221.322876,1146.172607 1215.244995,1146.172607 1209.203003,1146.172607 
	C1209.203003,1159.553589 1209.203003,1172.454956 1209.203003,1185.832031 
	C1215.576904,1185.832031 1221.659180,1185.832031 1228.223389,1185.832031 
	C1228.223389,1187.930664 1228.223267,1189.554321 1228.223267,1191.178101 
	C1228.223267,1205.004883 1227.898315,1218.840820 1228.292480,1232.656372 
	C1229.059814,1259.551270 1241.135620,1279.858032 1264.349365,1293.735229 
	C1284.636475,1305.862671 1306.795898,1302.056763 1328.643555,1302.706421 
	C1328.643555,1289.165405 1328.643555,1276.245728 1328.643555,1262.854614 
	C1318.793091,1262.854614 1309.174194,1262.921143 1299.556641,1262.840454 
	C1281.039917,1262.684814 1268.173462,1249.794922 1268.109253,1231.356934 
	C1268.061646,1217.696899 1268.091064,1204.036621 1268.109619,1190.376465 
	C1268.111572,1188.933105 1268.271362,1187.489990 1268.385498,1185.586426 
	C1288.702026,1185.586426 1308.622192,1185.586426 1328.577148,1185.586426 
	C1328.577148,1172.193237 1328.577148,1159.290039 1328.577148,1145.879272 
	C1308.377563,1145.879272 1288.477173,1145.879272 1268.098633,1145.879272 
	C1268.098633,1128.091675 1268.098633,1110.811646 1268.098633,1092.545654 
M361.918640,1248.500000 
	C361.918640,1266.427612 361.918640,1284.355347 361.918640,1302.462158 
	C375.514557,1302.462158 388.585724,1302.462158 401.825287,1302.462158 
	C401.825287,1229.374878 401.825287,1156.542603 401.825287,1083.517456 
	C388.489563,1083.517456 375.417877,1083.517456 361.918610,1083.517456 
	C361.918610,1138.352783 361.918610,1192.926392 361.918640,1248.500000 
M704.516968,916.496582 
	C703.056702,887.008606 680.881531,865.898743 652.740479,867.207520 
	C625.833801,868.458862 605.095764,891.528015 606.118530,919.069946 
	C607.176086,947.550049 634.258484,969.787292 662.309204,965.207947 
	C686.779968,961.213013 702.373962,943.536438 704.516968,916.496582 
M798.515320,948.961609 
	C810.964844,962.671265 826.553833,967.659241 844.537048,964.648987 
	C864.176941,961.361633 880.135742,945.005493 883.719238,925.369080 
	C887.404724,905.173645 877.962830,884.253662 860.531067,873.992615 
	C839.692017,861.725769 813.392395,866.013306 797.914673,884.200623 
	C782.141296,902.735535 782.189697,928.886230 798.515320,948.961609 
M963.307861,641.889954 
	C962.692078,643.255127 962.036133,644.603760 961.466553,645.987915 
	C951.626282,669.899658 961.901184,697.436035 984.948547,708.944763 
	C1007.928772,720.420044 1035.711182,712.313843 1049.032227,690.247070 
	C1062.330811,668.217896 1056.305054,639.317688 1035.161377,624.515930 
	C1010.934753,607.555847 978.126587,615.360168 963.307861,641.889954 
M442.646729,673.796936 
	C455.693359,691.253784 473.022522,698.556946 494.295166,693.716492 
	C513.644775,689.313599 526.280029,676.689453 530.806213,657.359131 
	C535.511108,637.265991 529.692078,619.845520 513.268799,607.105835 
	C497.255585,594.684326 479.410095,593.088318 461.135590,601.942627 
	C436.203217,614.022888 425.016998,646.766785 442.646729,673.796936 
M844.519226,1104.253296 
	C844.410217,1102.597778 844.426758,1100.922607 844.171997,1099.289795 
	C842.467590,1088.368164 836.139099,1081.117920 825.815796,1077.766479 
	C815.868408,1074.537231 806.606567,1076.587280 799.020325,1083.882568 
	C791.116150,1091.483398 788.902710,1100.918091 792.159119,1111.334961 
	C795.943054,1123.439453 807.669739,1130.538086 821.075989,1129.274414 
	C833.178223,1128.133789 842.554626,1118.422363 844.519226,1104.253296 
z"/>
<path fill="#3970F8" opacity="1.000000" stroke="none" 
	d="
M703.899658,253.924515 
	C756.993835,247.440948 808.405518,252.302414 858.326172,270.783875 
	C884.245544,280.379639 908.610046,292.963348 931.181213,308.922058 
	C934.297119,311.125122 936.225159,311.032776 939.315430,308.647644 
	C955.796875,295.927399 978.797119,297.503693 992.599304,311.960449 
	C1007.598877,327.671448 1008.432983,350.362244 994.623169,366.946808 
	C994.113953,367.558380 993.628723,368.190002 992.887878,369.118744 
	C1006.752014,378.916931 1017.089844,391.707397 1026.526489,405.233826 
	C1036.375854,419.352112 1043.540527,434.691162 1044.879639,452.142181 
	C1046.829346,477.552765 1035.711060,497.647034 1018.397461,514.920349 
	C998.126099,535.144653 973.545898,548.717407 947.491455,559.867493 
	C940.449829,562.880920 933.269958,565.575439 926.124939,568.342468 
	C914.706177,572.764709 903.082214,574.969116 890.612183,574.933838 
	C797.455872,574.670593 704.297119,574.665649 611.142029,575.149963 
	C592.386963,575.247498 574.426575,572.970520 556.696655,566.959717 
	C528.280273,557.326111 500.905426,545.751831 477.532837,526.432678 
	C465.342163,516.356201 454.986023,504.638214 449.084442,489.653961 
	C441.281006,469.840881 443.377899,450.293915 452.086578,431.452972 
	C462.925507,408.003357 478.331512,387.892029 498.529480,371.606140 
	C499.297791,370.986603 500.191986,370.523193 501.270386,369.831268 
	C494.635040,361.889160 490.276459,353.835358 489.767883,344.054230 
	C488.876709,326.915619 495.654816,313.630646 510.594055,305.492126 
	C525.108276,297.585114 539.947754,298.477448 553.467041,308.268036 
	C557.637146,311.288025 560.110962,311.099365 564.159729,308.298096 
	C606.264893,279.166199 652.667480,260.906036 703.899658,253.924515 
M705.756897,433.142975 
	C712.269043,410.483795 700.936035,388.605499 679.183105,381.842438 
	C658.232483,375.328857 636.116516,387.009766 629.034912,408.329163 
	C622.234985,428.800568 633.478394,451.315704 654.221619,458.766327 
	C675.055786,466.249573 697.304382,455.446045 705.756897,433.142975 
M788.274963,433.108154 
	C791.524170,442.393311 797.259888,449.658661 805.603394,454.949127 
	C824.626038,467.011078 850.085999,460.382507 861.767151,440.239868 
	C872.749939,421.301697 865.629700,395.494476 846.471985,385.274567 
	C831.404297,377.236481 816.465088,377.771210 802.797058,388.013428 
	C787.916443,399.164246 783.398865,414.376129 788.274963,433.108154 
z"/>
<path fill="#3870F8" opacity="1.000000" stroke="none" 
	d="
M660.000000,779.138428 
	C649.167603,779.141113 638.834351,779.233582 628.503052,779.127441 
	C606.506531,778.901428 588.569458,762.300964 588.251831,740.234314 
	C587.661926,699.246582 588.014954,658.245239 587.993530,617.249573 
	C587.993286,616.782471 588.234924,616.315186 588.481689,615.419434 
	C694.151855,615.419434 799.875488,615.419434 905.943481,615.419434 
	C906.057495,616.700378 906.266235,617.974426 906.270447,619.249146 
	C906.398315,657.742737 906.399109,696.237061 906.671936,734.729614 
	C906.775146,749.288452 902.273682,761.551208 890.630920,770.707031 
	C882.829590,776.841919 873.777771,779.034851 863.981689,779.034851 
	C796.154480,779.034729 728.327209,779.096436 660.000000,779.138428 
z"/>
<path fill="#363636" opacity="1.000000" stroke="none" 
	d="
M692.982544,1322.894043 
	C701.509155,1321.036133 710.050415,1318.859741 715.622131,1311.524780 
	C719.239563,1306.762573 721.902893,1301.275635 724.431580,1295.797241 
	C687.619751,1318.106812 634.552246,1302.333374 615.337402,1263.201416 
	C599.447815,1230.841553 604.855835,1190.880981 629.304504,1164.465942 
	C652.104248,1139.832397 696.511902,1125.484009 737.060852,1160.465942 
	C738.443542,1161.658691 739.832825,1162.843994 741.727661,1164.468872 
	C745.481323,1160.000732 749.635559,1155.901123 752.751221,1151.124146 
	C756.315247,1145.659790 760.908569,1145.160767 766.941528,1146.494629 
	C766.941528,1148.227905 766.941528,1150.016113 766.941528,1151.804321 
	C766.941650,1194.968140 766.945435,1238.131958 766.940735,1281.295776 
	C766.936401,1320.911133 741.351074,1353.238403 702.571960,1361.067749 
	C691.159363,1363.371948 679.146362,1362.702393 666.811340,1363.430908 
	C666.811340,1349.796265 666.811340,1337.351074 667.387817,1324.453247 
	C673.777954,1324.001953 679.594666,1324.112793 685.403992,1323.954224 
	C687.937927,1323.885010 690.456787,1323.264282 692.982544,1322.894043 
M685.647156,1265.518066 
	C689.256226,1265.040649 693.035217,1265.092163 696.445557,1263.996338 
	C712.846558,1258.725586 722.586853,1247.003174 725.768311,1230.484985 
	C729.038757,1213.504761 722.888489,1199.331055 709.673340,1188.410400 
	C693.130310,1174.739746 670.524780,1179.191284 659.779968,1190.151733 
	C646.010864,1204.197266 644.109253,1221.361694 650.064331,1239.300537 
	C655.490479,1255.646240 667.587219,1264.196777 685.647156,1265.518066 
z"/>
<path fill="#373737" opacity="1.000000" stroke="none" 
	d="
M259.991089,1092.945923 
	C282.549927,1092.937012 301.769012,1101.505981 317.020599,1117.574219 
	C342.240784,1144.144409 348.950958,1175.552856 334.582428,1209.280029 
	C320.505341,1242.323120 293.959076,1259.344849 257.843445,1260.536255 
	C245.696091,1260.937134 233.524628,1260.607300 221.364182,1260.611084 
	C219.584900,1260.611694 217.805634,1260.611084 215.645325,1260.611084 
	C215.645325,1274.769653 215.645325,1288.367798 215.645325,1302.341919 
	C201.548691,1302.341919 187.833282,1302.341919 173.501404,1302.341919 
	C173.501404,1233.176392 173.501404,1163.942627 174.153656,1094.352539 
	C201.508987,1094.000732 228.212143,1094.024536 254.915085,1093.964111 
	C256.607880,1093.960205 258.299133,1093.300537 259.991089,1092.945923 
M262.578552,1218.363892 
	C281.819672,1215.403076 296.489685,1201.225952 298.971558,1183.193604 
	C301.652588,1163.714355 292.212158,1146.141846 274.248047,1138.090698 
	C269.796051,1136.095459 264.747833,1135.430664 259.487854,1133.460327 
	C245.505219,1133.328491 231.522659,1133.185181 217.539703,1133.111450 
	C217.036896,1133.108887 216.530487,1133.790161 215.774124,1135.044312 
	C215.730270,1162.526611 215.684509,1190.008789 215.657913,1217.491089 
	C215.657440,1217.974487 215.886948,1218.458130 216.520248,1219.615967 
	C231.009445,1219.738159 245.498596,1219.875732 259.988037,1219.932617 
	C260.646576,1219.935181 261.307983,1219.208740 262.578552,1218.363892 
z"/>
<path fill="#363636" opacity="1.000000" stroke="none" 
	d="
M998.666077,1160.330444 
	C1031.971802,1192.501709 1034.566162,1246.305176 1004.109863,1279.859131 
	C983.213562,1302.880615 956.528137,1310.124634 926.775452,1303.395264 
	C896.258423,1296.492920 876.806519,1276.670410 868.156555,1246.687012 
	C866.153076,1239.742432 865.113770,1232.280640 865.071106,1225.048340 
	C864.801025,1179.230591 864.934082,1133.410522 864.945312,1087.591187 
	C864.945618,1086.303589 865.070374,1085.015991 865.147644,1083.525024 
	C878.480713,1083.525024 891.552612,1083.525024 904.945068,1083.525024 
	C904.945068,1107.551880 904.945068,1131.310181 904.945068,1156.156982 
	C912.278320,1148.522827 920.375000,1143.859497 929.753296,1141.815552 
	C955.725830,1136.154541 978.473022,1142.914307 998.666077,1160.330444 
M949.090149,1180.324463 
	C944.958679,1180.569702 940.657959,1180.155518 936.722961,1181.165894 
	C908.359436,1188.448364 895.903870,1224.212280 913.115784,1248.466309 
	C923.016907,1262.418335 939.397766,1268.506226 955.144653,1264.086182 
	C973.690979,1258.880127 985.920166,1240.794312 984.880066,1220.110596 
	C983.849731,1199.621216 969.707397,1183.512817 949.090149,1180.324463 
z"/>
<path fill="#373737" opacity="1.000000" stroke="none" 
	d="
M427.958496,1250.028687 
	C420.309143,1220.428711 423.645050,1193.167725 442.566132,1168.816772 
	C463.822815,1141.459717 511.222565,1124.791626 552.095520,1158.347290 
	C554.405945,1160.244019 556.690979,1162.171753 559.378784,1164.410522 
	C562.936462,1160.190308 566.822815,1156.319214 569.808350,1151.846924 
	C573.346436,1146.546875 577.737244,1144.713623 584.158325,1146.425415 
	C584.158325,1198.143311 584.158325,1250.031372 584.158325,1301.954712 
	C576.861755,1303.973633 575.418762,1303.489014 571.071899,1297.470581 
	C567.271484,1292.208618 563.474487,1286.944214 559.289673,1281.145752 
	C534.451904,1303.847534 506.254517,1312.250000 473.992340,1300.288696 
	C450.404938,1291.543579 435.313934,1274.459229 427.958496,1250.028687 
M466.609528,1236.729492 
	C473.154358,1262.975220 499.914948,1270.408081 518.322449,1262.591187 
	C548.189636,1249.907837 553.151733,1208.128418 527.375610,1188.391235 
	C504.887756,1171.171997 474.088867,1181.507324 466.618927,1208.797485 
	C464.151093,1217.813354 464.331299,1226.878418 466.609528,1236.729492 
z"/>
<path fill="#363636" opacity="1.000000" stroke="none" 
	d="
M1196.588745,1201.486328 
	C1201.815552,1226.825317 1198.622559,1250.335205 1183.819214,1271.487061 
	C1164.818970,1298.635620 1132.355957,1311.054565 1100.915527,1303.652100 
	C1069.421631,1296.237061 1045.193359,1270.194946 1039.915527,1238.085693 
	C1033.814941,1200.971924 1050.014771,1165.824951 1080.810669,1149.360474 
	C1127.949951,1124.158325 1183.881592,1149.178955 1196.588745,1201.486328 
M1114.822144,1180.297729 
	C1110.515747,1181.440063 1105.916260,1181.961670 1101.953613,1183.832275 
	C1084.775146,1191.941040 1076.328857,1210.759766 1080.002441,1231.764282 
	C1083.349487,1250.901855 1098.204346,1264.638794 1117.786865,1265.393188 
	C1135.359009,1266.070190 1150.922607,1255.847778 1156.509766,1236.996582 
	C1165.213135,1207.630859 1146.600586,1177.934937 1114.822144,1180.297729 
z"/>
<path fill="#373737" opacity="1.000000" stroke="none" 
	d="
M1268.098633,1093.038574 
	C1268.098633,1110.811646 1268.098633,1128.091675 1268.098633,1145.879272 
	C1288.477173,1145.879272 1308.377563,1145.879272 1328.577148,1145.879272 
	C1328.577148,1159.290039 1328.577148,1172.193237 1328.577148,1185.586426 
	C1308.622192,1185.586426 1288.702026,1185.586426 1268.385498,1185.586426 
	C1268.271362,1187.489990 1268.111572,1188.933105 1268.109619,1190.376465 
	C1268.091064,1204.036621 1268.061646,1217.696899 1268.109253,1231.356934 
	C1268.173462,1249.794922 1281.039917,1262.684814 1299.556641,1262.840454 
	C1309.174194,1262.921143 1318.793091,1262.854614 1328.643555,1262.854614 
	C1328.643555,1276.245728 1328.643555,1289.165405 1328.643555,1302.706421 
	C1306.795898,1302.056763 1284.636475,1305.862671 1264.349365,1293.735229 
	C1241.135620,1279.858032 1229.059814,1259.551270 1228.292480,1232.656372 
	C1227.898315,1218.840820 1228.223267,1205.004883 1228.223267,1191.178101 
	C1228.223267,1189.554321 1228.223389,1187.930664 1228.223389,1185.832031 
	C1221.659180,1185.832031 1215.576904,1185.832031 1209.203003,1185.832031 
	C1209.203003,1172.454956 1209.203003,1159.553589 1209.203003,1146.172607 
	C1215.244995,1146.172607 1221.322876,1146.172607 1227.926758,1146.172607 
	C1227.926758,1125.155029 1227.926758,1104.600220 1227.926758,1083.648926 
	C1241.499023,1083.648926 1254.541626,1083.648926 1268.098633,1083.648926 
	C1268.098633,1086.647339 1268.098633,1089.596558 1268.098633,1093.038574 
z"/>
<path fill="#363636" opacity="1.000000" stroke="none" 
	d="
M361.918640,1248.000000 
	C361.918610,1192.926392 361.918610,1138.352783 361.918610,1083.517456 
	C375.417877,1083.517456 388.489563,1083.517456 401.825287,1083.517456 
	C401.825287,1156.542603 401.825287,1229.374878 401.825287,1302.462158 
	C388.585724,1302.462158 375.514557,1302.462158 361.918640,1302.462158 
	C361.918640,1284.355347 361.918640,1266.427612 361.918640,1248.000000 
z"/>
<path fill="#3A71F8" opacity="1.000000" stroke="none" 
	d="
M704.514465,916.932922 
	C702.373962,943.536438 686.779968,961.213013 662.309204,965.207947 
	C634.258484,969.787292 607.176086,947.550049 606.118530,919.069946 
	C605.095764,891.528015 625.833801,868.458862 652.740479,867.207520 
	C680.881531,865.898743 703.056702,887.008606 704.514465,916.932922 
z"/>
<path fill="#3A71F8" opacity="1.000000" stroke="none" 
	d="
M798.274414,948.701416 
	C782.189697,928.886230 782.141296,902.735535 797.914673,884.200623 
	C813.392395,866.013306 839.692017,861.725769 860.531067,873.992615 
	C877.962830,884.253662 887.404724,905.173645 883.719238,925.369080 
	C880.135742,945.005493 864.176941,961.361633 844.537048,964.648987 
	C826.553833,967.659241 810.964844,962.671265 798.274414,948.701416 
z"/>
<path fill="#3971F8" opacity="1.000000" stroke="none" 
	d="
M963.490723,641.568481 
	C978.126587,615.360168 1010.934753,607.555847 1035.161377,624.515930 
	C1056.305054,639.317688 1062.330811,668.217896 1049.032227,690.247070 
	C1035.711182,712.313843 1007.928772,720.420044 984.948547,708.944763 
	C961.901184,697.436035 951.626282,669.899658 961.466553,645.987915 
	C962.036133,644.603760 962.692078,643.255127 963.490723,641.568481 
z"/>
<path fill="#3971F8" opacity="1.000000" stroke="none" 
	d="
M442.445221,673.494751 
	C425.016998,646.766785 436.203217,614.022888 461.135590,601.942627 
	C479.410095,593.088318 497.255585,594.684326 513.268799,607.105835 
	C529.692078,619.845520 535.511108,637.265991 530.806213,657.359131 
	C526.280029,676.689453 513.644775,689.313599 494.295166,693.716492 
	C473.022522,698.556946 455.693359,691.253784 442.445221,673.494751 
z"/>
<path fill="#393939" opacity="1.000000" stroke="none" 
	d="
M837.279114,1146.946899 
	C837.433411,1148.244385 837.722107,1149.541626 837.722717,1150.839233 
	C837.745667,1199.998657 837.743713,1249.157959 837.734009,1298.317383 
	C837.733704,1299.610474 837.610718,1300.903564 837.531799,1302.454834 
	C824.168152,1302.454834 811.078064,1302.454834 797.323425,1302.454834 
	C797.323425,1250.832031 797.323425,1199.250732 798.013062,1147.300781 
	C811.561523,1146.937012 824.420288,1146.941895 837.279114,1146.946899 
z"/>
<path fill="#363636" opacity="1.000000" stroke="none" 
	d="
M844.474915,1104.669189 
	C842.554626,1118.422363 833.178223,1128.133789 821.075989,1129.274414 
	C807.669739,1130.538086 795.943054,1123.439453 792.159119,1111.334961 
	C788.902710,1100.918091 791.116150,1091.483398 799.020325,1083.882568 
	C806.606567,1076.587280 815.868408,1074.537231 825.815796,1077.766479 
	C836.139099,1081.117920 842.467590,1088.368164 844.171997,1099.289795 
	C844.426758,1100.922607 844.410217,1102.597778 844.474915,1104.669189 
z"/>
<path fill="#010101" opacity="1.000000" stroke="none" 
	d="
M259.529114,1092.864380 
	C258.299133,1093.300537 256.607880,1093.960205 254.915085,1093.964111 
	C228.212143,1094.024536 201.508987,1094.000732 174.327637,1093.982422 
	C175.104294,1093.557739 176.358475,1092.790649 177.614182,1092.788208 
	C204.765060,1092.734863 231.916107,1092.767090 259.529114,1092.864380 
z"/>
<path fill="#010101" opacity="1.000000" stroke="none" 
	d="
M837.074585,1146.537354 
	C824.420288,1146.941895 811.561523,1146.937012 798.216309,1146.940552 
	C798.377747,1146.597412 799.026123,1145.938599 799.673584,1145.939453 
	C812.072449,1145.955933 824.471252,1146.049927 837.074585,1146.537354 
z"/>
<path fill="#010101" opacity="1.000000" stroke="none" 
	d="
M692.517456,1322.839844 
	C690.456787,1323.264282 687.937927,1323.885010 685.403992,1323.954224 
	C679.594666,1324.112793 673.777954,1324.001953 667.497620,1323.994995 
	C668.436340,1323.611572 669.835815,1322.934204 671.247986,1322.906616 
	C678.180969,1322.771606 685.117249,1322.809204 692.517456,1322.839844 
z"/>
<path fill="#FCFDFF" opacity="1.000000" stroke="none" 
	d="
M705.615234,433.511047 
	C697.304382,455.446045 675.055786,466.249573 654.221619,458.766327 
	C633.478394,451.315704 622.234985,428.800568 629.034912,408.329163 
	C636.116516,387.009766 658.232483,375.328857 679.183105,381.842438 
	C700.936035,388.605499 712.269043,410.483795 705.615234,433.511047 
z"/>
<path fill="#FCFDFF" opacity="1.000000" stroke="none" 
	d="
M788.167908,432.721680 
	C783.398865,414.376129 787.916443,399.164246 802.797058,388.013428 
	C816.465088,377.771210 831.404297,377.236481 846.471985,385.274567 
	C865.629700,395.494476 872.749939,421.301697 861.767151,440.239868 
	C850.085999,460.382507 824.626038,467.011078 805.603394,454.949127 
	C797.259888,449.658661 791.524170,442.393311 788.167908,432.721680 
z"/>
<path fill="#FDFDFD" opacity="1.000000" stroke="none" 
	d="
M685.227539,1265.449097 
	C667.587219,1264.196777 655.490479,1255.646240 650.064331,1239.300537 
	C644.109253,1221.361694 646.010864,1204.197266 659.779968,1190.151733 
	C670.524780,1179.191284 693.130310,1174.739746 709.673340,1188.410400 
	C722.888489,1199.331055 729.038757,1213.504761 725.768311,1230.484985 
	C722.586853,1247.003174 712.846558,1258.725586 696.445557,1263.996338 
	C693.035217,1265.092163 689.256226,1265.040649 685.227539,1265.449097 
z"/>
<path fill="#FDFDFD" opacity="1.000000" stroke="none" 
	d="
M259.973694,1134.154297 
	C264.747833,1135.430664 269.796051,1136.095459 274.248047,1138.090698 
	C292.212158,1146.141846 301.652588,1163.714355 298.971558,1183.193604 
	C296.489685,1201.225952 281.819672,1215.403076 261.807678,1218.555176 
	C246.027573,1218.811646 231.018356,1218.876587 216.009125,1218.941650 
	C215.886948,1218.458130 215.657440,1217.974487 215.657913,1217.491089 
	C215.684509,1190.008789 215.730270,1162.526611 216.366455,1134.622314 
	C231.297089,1134.185059 245.635391,1134.169678 259.973694,1134.154297 
z"/>
<path fill="#010101" opacity="1.000000" stroke="none" 
	d="
M216.264679,1219.278809 
	C231.018356,1218.876587 246.027573,1218.811646 261.502411,1218.784180 
	C261.307983,1219.208740 260.646576,1219.935181 259.988037,1219.932617 
	C245.498596,1219.875732 231.009445,1219.738159 216.264679,1219.278809 
z"/>
<path fill="#010101" opacity="1.000000" stroke="none" 
	d="
M259.730774,1133.807373 
	C245.635391,1134.169678 231.297089,1134.185059 216.492279,1134.176514 
	C216.530487,1133.790161 217.036896,1133.108887 217.539703,1133.111450 
	C231.522659,1133.185181 245.505219,1133.328491 259.730774,1133.807373 
z"/>
<path fill="#FDFDFD" opacity="1.000000" stroke="none" 
	d="
M949.535034,1180.341553 
	C969.707397,1183.512817 983.849731,1199.621216 984.880066,1220.110596 
	C985.920166,1240.794312 973.690979,1258.880127 955.144653,1264.086182 
	C939.397766,1268.506226 923.016907,1262.418335 913.115784,1248.466309 
	C895.903870,1224.212280 908.359436,1188.448364 936.722961,1181.165894 
	C940.657959,1180.155518 944.958679,1180.569702 949.535034,1180.341553 
z"/>
<path fill="#FDFDFD" opacity="1.000000" stroke="none" 
	d="
M466.460724,1236.341797 
	C464.331299,1226.878418 464.151093,1217.813354 466.618927,1208.797485 
	C474.088867,1181.507324 504.887756,1171.171997 527.375610,1188.391235 
	C553.151733,1208.128418 548.189636,1249.907837 518.322449,1262.591187 
	C499.914948,1270.408081 473.154358,1262.975220 466.460724,1236.341797 
z"/>
<path fill="#FDFDFD" opacity="1.000000" stroke="none" 
	d="
M1115.280518,1180.279541 
	C1146.600586,1177.934937 1165.213135,1207.630859 1156.509766,1236.996582 
	C1150.922607,1255.847778 1135.359009,1266.070190 1117.786865,1265.393188 
	C1098.204346,1264.638794 1083.349487,1250.901855 1080.002441,1231.764282 
	C1076.328857,1210.759766 1084.775146,1191.941040 1101.953613,1183.832275 
	C1105.916260,1181.961670 1110.515747,1181.440063 1115.280518,1180.279541 
z"/>
</svg>